<?xml version="1.0" encoding="UTF-8"?><svg id="Calque_1" xmlns="http://www.w3.org/2000/svg" viewBox="0 0 621.57 163.51"><defs><style>.cls-1{fill:#2dad75;}.cls-2{fill:#fff;}.cls-3{fill:#36bde7;}.cls-4{fill:#d92051;}.cls-5{fill:#f7b700;}</style></defs><path class="cls-2" d="M256.56,149.47c-6.65-2.83-12.25-6.93-16.8-12.32-4.41-5.22-7.62-11.54-9.62-18.98-.11-.4.12-.83.51-.96l20.36-6.88c.42-.14.86.11.98.53,2.21,7.55,5.58,13.02,10.14,16.4,4.71,3.51,10.05,5.26,16.01,5.26,3.77,0,7.19-.57,10.28-1.73,3.09-1.15,5.55-2.88,7.38-5.18,1.83-2.3,2.75-5.02,2.75-8.16s-.84-5.55-2.51-7.53c-1.67-1.99-3.79-3.64-6.36-4.94-2.56-1.31-5.78-2.54-9.66-3.69-.73-.21-1.46-.47-2.2-.78l-10.99-3.29c-5.44-1.67-10.49-3.77-15.15-6.28-4.66-2.51-8.74-6.15-12.25-10.91-3.51-4.76-5.26-10.7-5.26-17.82s1.86-13.55,5.57-18.99c3.71-5.44,8.76-9.66,15.15-12.64,6.38-2.98,13.55-4.48,21.51-4.48,7.43,0,14.13,1.31,20.1,3.93,5.96,2.62,10.85,6.1,14.68,10.44,3.65,4.15,6.18,8.65,7.58,13.52.11.39-.1.8-.47.96l-19.97,8.08c-.4.16-.84-.05-1-.45-1.87-4.77-4.52-8.48-7.96-11.11-3.61-2.77-8.09-4.16-13.42-4.16-3.35,0-6.36.55-9.03,1.65-2.67,1.1-4.71,2.64-6.12,4.63-1.41,1.99-2.12,4.24-2.12,6.75,0,4.4,1.89,7.85,5.65,10.36,3.77,2.51,8.79,4.77,15.07,6.75.11,0,.18.03.24.08.05.05.13.08.24.08l12.87,4.08c.63.21,1.46.53,2.51.94,5.02,1.57,9.52,3.51,13.5,5.81,3.97,2.3,7.4,5.6,10.28,9.89,2.88,4.29,4.32,9.73,4.32,16.32,0,7.43-1.86,14.11-5.57,20.02-3.72,5.91-8.95,10.57-15.7,13.97-6.75,3.4-14.62,5.1-23.63,5.1-7.96,0-15.25-1.41-21.9-4.24Z"/><path class="cls-2" d="M83.2,124.96c-5.86,4.55-12.92,6.83-21.19,6.83-7.12,0-13.53-1.73-19.23-5.18-5.7-3.45-10.18-8.39-13.42-14.83-3.16-6.26-4.75-13.56-4.83-21.85.09-8.29,1.68-15.59,4.83-21.85,3.24-6.44,7.72-11.38,13.42-14.83,5.7-3.45,12.11-5.18,19.23-5.18,8.27,0,15.33,2.28,21.19,6.83,5.68,4.41,10.14,10.29,13.36,17.61.17.38.6.56.98.41l20.25-8.07c.4-.16.6-.62.45-1.02-2.82-7.44-6.89-13.97-12.21-19.6-5.5-5.81-11.98-10.28-19.47-13.42-7.48-3.14-15.57-4.71-24.25-4.71-10.99,0-21.25,2.49-30.77,7.46-9.52,4.97-17.17,12.27-22.92,21.9C2.88,65.07,0,76.42,0,89.5v.85c0,13.08,2.88,24.44,8.63,34.06,5.75,9.63,13.4,16.93,22.92,21.9,9.52,4.97,19.78,7.46,30.77,7.46,8.69,0,16.77-1.57,24.25-4.71,7.48-3.14,13.97-7.61,19.47-13.42,5.32-5.63,9.39-12.16,12.21-19.6.15-.4-.05-.86-.45-1.02l-20.25-8.07c-.38-.15-.82.03-.98.41-3.23,7.32-7.68,13.19-13.36,17.61Z"/><path class="cls-2" d="M586.47,124.96c-5.86,4.55-12.92,6.83-21.19,6.83-7.12,0-13.53-1.73-19.23-5.18-5.7-3.45-10.18-8.39-13.42-14.83-3.16-6.26-4.75-13.56-4.83-21.85.09-8.29,1.68-15.59,4.83-21.85,3.24-6.44,7.72-11.38,13.42-14.83,5.7-3.45,12.11-5.18,19.23-5.18,8.27,0,15.33,2.28,21.19,6.83,5.68,4.41,10.14,10.29,13.36,17.61.17.38.6.56.98.41l20.25-8.07c.4-.16.6-.62.45-1.02-2.82-7.44-6.89-13.97-12.21-19.6-5.5-5.81-11.98-10.28-19.47-13.42-7.48-3.14-15.57-4.71-24.25-4.71-10.99,0-21.25,2.49-30.77,7.46-9.52,4.97-17.17,12.27-22.92,21.9-5.75,9.63-8.63,20.98-8.63,34.06v.85c0,13.08,2.88,24.44,8.63,34.06,5.75,9.63,13.4,16.93,22.92,21.9,9.52,4.97,19.78,7.46,30.77,7.46,8.69,0,16.77-1.57,24.25-4.71,7.48-3.14,13.97-7.61,19.47-13.42,5.32-5.63,9.39-12.16,12.21-19.6.15-.4-.05-.86-.45-1.02l-20.25-8.07c-.38-.15-.82.03-.98.41-3.23,7.32-7.68,13.19-13.36,17.61Z"/><path class="cls-2" d="M157.24,79.3h41.49c.43,0,.78.35.78.78v17.96c0,.43-.35.78-.78.78h-40.72c-.43,0-.78.35-.78.78v31.43c0,.43.35.78.78.78h56.69c.43,0,.78.35.78.78v17.69c0,.43-.35.78-.78.78h-80.08c-.43,0-.78-.35-.78-.78V29.37c0-.43.35-.78.78-.78h78.51c.43,0,.78.35.78.78v17.91c0,.43-.35.78-.78.78h-55.9"/><path class="cls-2" d="M369.04,20.92c.01-3.53,2.91-6.43,6.43-6.33,5.79.16,11.63,1.43,17.26,3.9.25.11.52.23.8.35,11.22,5.16,19.38,14.19,23.68,24.77.27.66-.22,1.38-.93,1.38,0,0-28.36.07-40.05.09-3.85,0-7.02-3.02-7.17-6.87-.17-4.31-.04-10.12-.01-17.3Z"/><path class="cls-1" d="M345.06,57.77c.15-3.85,3.32-6.87,7.17-6.87,11.69.02,40.05.09,40.05.09.71,0,1.2.73.93,1.38-4.3,10.58-12.46,19.61-23.68,24.77-.27.12-.55.24-.8.35-5.62,2.47-11.47,3.74-17.26,3.9-3.53.1-6.42-2.8-6.43-6.33-.02-7.18-.16-12.99.01-17.3Z"/><path class="cls-2" d="M481.62,45.22c3.53.01,6.43,2.91,6.33,6.43-.16,5.79-1.43,11.63-3.9,17.26-.11.25-.23.52-.35.8-5.16,11.22-14.19,19.38-24.77,23.68-.66.27-1.38-.22-1.38-.93,0,0-.07-28.36-.09-40.05,0-3.85,3.02-7.02,6.87-7.17,4.31-.17,10.12-.04,17.3-.01Z"/><path class="cls-5" d="M444.78,21.24c3.85.15,6.87,3.32,6.87,7.17-.02,11.69-.09,40.05-.09,40.05,0,.71-.73,1.2-1.38.93-10.58-4.3-19.61-12.46-24.77-23.68-.12-.27-.24-.55-.35-.8-2.47-5.62-3.74-11.47-3.9-17.26-.1-3.53,2.8-6.42,6.33-6.43,7.18-.02,12.99-.16,17.3.01Z"/><path class="cls-2" d="M457.48,157.18c-.01,3.53-2.91,6.43-6.43,6.33-5.79-.16-11.63-1.43-17.26-3.9-.25-.11-.52-.23-.8-.35-11.22-5.16-19.38-14.19-23.68-24.77-.27-.66.22-1.38.93-1.38,0,0,28.36-.07,40.05-.09,3.85,0,7.02,3.02,7.17,6.87.17,4.31.04,10.12.01,17.3Z"/><path class="cls-4" d="M481.46,120.34c-.15,3.85-3.32,6.87-7.17,6.87-11.69-.02-40.05-.09-40.05-.09-.71,0-1.2-.73-.93-1.38,4.3-10.58,12.46-19.61,23.68-24.77.27-.12.55-.24.8-.35,5.62-2.47,11.47-3.74,17.26-3.9,3.53-.1,6.42,2.8,6.43,6.33.02,7.18.16,12.99-.01,17.3Z"/><path class="cls-2" d="M345.02,132.9c-3.53-.01-6.43-2.91-6.33-6.43.16-5.79,1.43-11.63,3.9-17.26.11-.25.23-.52.35-.8,5.16-11.22,14.19-19.38,24.77-23.68.66-.27,1.38.22,1.38.93,0,0,.07,28.36.09,40.05,0,3.85-3.02,7.02-6.87,7.17-4.31.17-10.12.04-17.3.01Z"/><path class="cls-3" d="M381.86,156.88c-3.85-.15-6.87-3.32-6.87-7.17.02-11.69.09-40.05.09-40.05,0-.71.73-1.2,1.38-.93,10.58,4.3,19.61,12.46,24.77,23.68.12.27.24.55.35.8,2.47,5.62,3.74,11.47,3.9,17.26.1,3.53-2.8,6.42-6.33,6.43-7.18.02-12.99.16-17.3-.01Z"/><path class="cls-2" d="M190.24,16.01c-.1,2.61-2.25,4.66-4.86,4.65-7.92-.01-22.96-.05-27.14-.06-.48,0-.81-.49-.63-.94,2.91-7.17,8.44-13.29,16.04-16.78.18-.08.37-.16.54-.24C178.01.97,181.97.11,185.89,0c2.39-.07,4.35,1.9,4.36,4.29.02,4.87.11,8.8,0,11.72Z"/></svg>